<mxfile host="app.diagrams.net" modified="2021-06-19T17:51:02.896Z" agent="5.0 (X11; Linux x86_64) AppleWebKit/537.36 (KHTML, like Gecko) Chrome/91.0.4472.101 Safari/537.36" etag="bcJjIjbjhPqpMgJJp9zi" version="14.7.9" type="github">
  <diagram id="WcriYCKenzfUjqUQbDSd" name="Page-1">
    <mxGraphModel dx="2516" dy="1074" grid="1" gridSize="10" guides="1" tooltips="1" connect="1" arrows="1" fold="1" page="1" pageScale="1" pageWidth="827" pageHeight="1169" math="0" shadow="0">
      <root>
        <mxCell id="0" />
        <mxCell id="1" parent="0" />
        <mxCell id="SPVTOjcvmlSqd_9IR7FR-14" style="edgeStyle=orthogonalEdgeStyle;rounded=0;orthogonalLoop=1;jettySize=auto;html=1;exitX=0.5;exitY=1;exitDx=0;exitDy=0;entryX=0.5;entryY=0;entryDx=0;entryDy=0;" edge="1" parent="1" source="SPVTOjcvmlSqd_9IR7FR-1" target="SPVTOjcvmlSqd_9IR7FR-5">
          <mxGeometry relative="1" as="geometry" />
        </mxCell>
        <mxCell id="SPVTOjcvmlSqd_9IR7FR-1" value="" style="ellipse;whiteSpace=wrap;html=1;aspect=fixed;" vertex="1" parent="1">
          <mxGeometry x="350" y="40" width="60" height="60" as="geometry" />
        </mxCell>
        <mxCell id="SPVTOjcvmlSqd_9IR7FR-2" value="&lt;h1&gt;&lt;span style=&quot;font-weight: normal&quot; id=&quot;docs-internal-guid-88153b5a-7fff-0b38-58a7-aac70dbc6433&quot;&gt;&lt;p dir=&quot;ltr&quot; style=&quot;line-height: 1.38 ; margin-top: 0pt ; margin-bottom: 0pt&quot;&gt;&lt;span style=&quot;font-family: &amp;#34;arial&amp;#34; ; background-color: transparent ; vertical-align: baseline&quot;&gt;&lt;font style=&quot;font-size: 12px&quot;&gt;begin&amp;nbsp;&lt;/font&gt;&lt;/span&gt;&lt;/p&gt;&lt;p dir=&quot;ltr&quot; style=&quot;line-height: 1.38 ; margin-top: 0pt ; margin-bottom: 0pt&quot;&gt;&lt;font style=&quot;font-size: 12px&quot;&gt;&lt;span style=&quot;font-family: &amp;#34;arial&amp;#34; ; background-color: transparent ; vertical-align: baseline&quot;&gt;&lt;span class=&quot;Apple-tab-span&quot;&gt;	&lt;/span&gt;&lt;/span&gt;&lt;span style=&quot;font-family: &amp;#34;arial&amp;#34; ; background-color: transparent ; vertical-align: baseline&quot;&gt;if(arreglo.length == 0){&lt;/span&gt;&lt;/font&gt;&lt;/p&gt;&lt;p dir=&quot;ltr&quot; style=&quot;line-height: 1.38 ; margin-top: 0pt ; margin-bottom: 0pt&quot;&gt;&lt;font size=&quot;3&quot;&gt;&lt;span style=&quot;font-family: &amp;#34;arial&amp;#34; ; background-color: transparent ; vertical-align: baseline&quot;&gt;&lt;span class=&quot;Apple-tab-span&quot;&gt;	&lt;/span&gt;&lt;/span&gt;&lt;span style=&quot;font-family: &amp;#34;arial&amp;#34; ; background-color: transparent ; vertical-align: baseline&quot;&gt;&lt;span class=&quot;Apple-tab-span&quot;&gt;	&lt;/span&gt;&lt;/span&gt;&lt;span style=&quot;font-family: &amp;#34;arial&amp;#34; ; background-color: transparent ; vertical-align: baseline&quot;&gt;print(“ ”);&lt;/span&gt;&lt;/font&gt;&lt;/p&gt;&lt;p dir=&quot;ltr&quot; style=&quot;line-height: 1.38 ; text-indent: 36pt ; margin-top: 0pt ; margin-bottom: 0pt&quot;&gt;&lt;span style=&quot;font-family: &amp;#34;arial&amp;#34; ; background-color: transparent ; vertical-align: baseline&quot;&gt;&lt;font size=&quot;3&quot;&gt;}&lt;/font&gt;&lt;/span&gt;&lt;/p&gt;&lt;p dir=&quot;ltr&quot; style=&quot;line-height: 1.38 ; text-indent: 36pt ; margin-top: 0pt ; margin-bottom: 0pt&quot;&gt;&lt;span style=&quot;font-family: &amp;#34;arial&amp;#34; ; background-color: transparent ; vertical-align: baseline&quot;&gt;&lt;font size=&quot;3&quot;&gt;else{&lt;/font&gt;&lt;/span&gt;&lt;/p&gt;&lt;p dir=&quot;ltr&quot; style=&quot;line-height: 1.38 ; margin-left: 72pt ; margin-top: 0pt ; margin-bottom: 0pt&quot;&gt;&lt;span style=&quot;font-family: &amp;#34;arial&amp;#34; ; background-color: transparent ; vertical-align: baseline&quot;&gt;&lt;font size=&quot;3&quot;&gt;if(arreglo.lenght ==&amp;nbsp; 1){&lt;/font&gt;&lt;/span&gt;&lt;/p&gt;&lt;p dir=&quot;ltr&quot; style=&quot;line-height: 1.38 ; margin-left: 72pt ; margin-top: 0pt ; margin-bottom: 0pt&quot;&gt;&lt;font size=&quot;3&quot;&gt;&lt;span style=&quot;font-family: &amp;#34;arial&amp;#34; ; background-color: transparent ; vertical-align: baseline&quot;&gt;&lt;span class=&quot;Apple-tab-span&quot;&gt;	&lt;/span&gt;&lt;/span&gt;&lt;span style=&quot;font-family: &amp;#34;arial&amp;#34; ; background-color: transparent ; vertical-align: baseline&quot;&gt;&lt;span class=&quot;Apple-tab-span&quot;&gt;	&lt;/span&gt;&lt;/span&gt;&lt;span style=&quot;font-family: &amp;#34;arial&amp;#34; ; background-color: transparent ; vertical-align: baseline&quot;&gt;print(arreglo[0]);&lt;/span&gt;&lt;/font&gt;&lt;/p&gt;&lt;p dir=&quot;ltr&quot; style=&quot;line-height: 1.38 ; margin-left: 72pt ; margin-top: 0pt ; margin-bottom: 0pt&quot;&gt;&lt;span style=&quot;font-family: &amp;#34;arial&amp;#34; ; background-color: transparent ; vertical-align: baseline&quot;&gt;&lt;font size=&quot;3&quot;&gt;}&lt;/font&gt;&lt;/span&gt;&lt;/p&gt;&lt;p dir=&quot;ltr&quot; style=&quot;line-height: 1.38 ; margin-left: 72pt ; margin-top: 0pt ; margin-bottom: 0pt&quot;&gt;&lt;span style=&quot;font-family: &amp;#34;arial&amp;#34; ; background-color: transparent ; vertical-align: baseline&quot;&gt;&lt;font size=&quot;3&quot;&gt;else{&lt;/font&gt;&lt;/span&gt;&lt;/p&gt;&lt;p dir=&quot;ltr&quot; style=&quot;line-height: 1.38 ; margin-left: 72pt ; margin-top: 0pt ; margin-bottom: 0pt&quot;&gt;&lt;font size=&quot;3&quot;&gt;&lt;span style=&quot;font-family: &amp;#34;arial&amp;#34; ; background-color: transparent ; vertical-align: baseline&quot;&gt;&lt;span class=&quot;Apple-tab-span&quot;&gt;	&lt;/span&gt;&lt;/span&gt;&lt;span style=&quot;font-family: &amp;#34;arial&amp;#34; ; background-color: transparent ; vertical-align: baseline&quot;&gt;suma:=0;&amp;nbsp;&lt;/span&gt;&lt;/font&gt;&lt;/p&gt;&lt;p dir=&quot;ltr&quot; style=&quot;line-height: 1.38 ; margin-left: 108pt ; margin-top: 0pt ; margin-bottom: 0pt&quot;&gt;&lt;span style=&quot;font-family: &amp;#34;arial&amp;#34; ; background-color: transparent ; vertical-align: baseline&quot;&gt;&lt;font size=&quot;3&quot;&gt;valorOld=arreglo[1];&lt;/font&gt;&lt;/span&gt;&lt;/p&gt;&lt;p dir=&quot;ltr&quot; style=&quot;line-height: 1.38 ; margin-left: 108pt ; margin-top: 0pt ; margin-bottom: 0pt&quot;&gt;&lt;span style=&quot;font-family: &amp;#34;arial&amp;#34; ; background-color: transparent ; vertical-align: baseline&quot;&gt;&lt;font size=&quot;3&quot;&gt;x:=1;&amp;nbsp;&lt;/font&gt;&lt;/span&gt;&lt;/p&gt;&lt;p dir=&quot;ltr&quot; style=&quot;line-height: 1.38 ; margin-left: 108pt ; margin-top: 0pt ; margin-bottom: 0pt&quot;&gt;&lt;span style=&quot;font-family: &amp;#34;arial&amp;#34; ; background-color: transparent ; vertical-align: baseline&quot;&gt;&lt;font size=&quot;3&quot;&gt;while(x &amp;lt; arreglo.lenght(arreglo))&amp;nbsp;&lt;/font&gt;&lt;/span&gt;&lt;/p&gt;&lt;p dir=&quot;ltr&quot; style=&quot;line-height: 1.38 ; margin-left: 108pt ; margin-top: 0pt ; margin-bottom: 0pt&quot;&gt;&lt;span style=&quot;font-family: &amp;#34;arial&amp;#34; ; background-color: transparent ; vertical-align: baseline&quot;&gt;&lt;font size=&quot;3&quot;&gt;begin&amp;nbsp;&lt;/font&gt;&lt;/span&gt;&lt;/p&gt;&lt;p dir=&quot;ltr&quot; style=&quot;line-height: 1.38 ; margin-left: 144pt ; margin-top: 0pt ; margin-bottom: 0pt&quot;&gt;&lt;span style=&quot;font-family: &amp;#34;arial&amp;#34; ; background-color: transparent ; vertical-align: baseline&quot;&gt;&lt;font size=&quot;3&quot;&gt;if (arreglo[x]&amp;lt;&amp;gt;valorOld) then&amp;nbsp;&lt;/font&gt;&lt;/span&gt;&lt;/p&gt;&lt;p dir=&quot;ltr&quot; style=&quot;line-height: 1.38 ; margin-left: 180pt ; margin-top: 0pt ; margin-bottom: 0pt&quot;&gt;&lt;span style=&quot;font-family: &amp;#34;arial&amp;#34; ; background-color: transparent ; vertical-align: baseline&quot;&gt;&lt;font size=&quot;3&quot;&gt;print(suma);&amp;nbsp;&lt;/font&gt;&lt;/span&gt;&lt;/p&gt;&lt;p dir=&quot;ltr&quot; style=&quot;line-height: 1.38 ; margin-left: 180pt ; margin-top: 0pt ; margin-bottom: 0pt&quot;&gt;&lt;span style=&quot;font-family: &amp;#34;arial&amp;#34; ; background-color: transparent ; vertical-align: baseline&quot;&gt;&lt;font size=&quot;3&quot;&gt;suma:=0;&amp;nbsp;&lt;/font&gt;&lt;/span&gt;&lt;/p&gt;&lt;p dir=&quot;ltr&quot; style=&quot;line-height: 1.38 ; margin-left: 108pt ; text-indent: 36pt ; margin-top: 0pt ; margin-bottom: 0pt&quot;&gt;&lt;span style=&quot;font-family: &amp;#34;arial&amp;#34; ; background-color: transparent ; vertical-align: baseline&quot;&gt;&lt;font size=&quot;3&quot;&gt;endIf&amp;nbsp;&lt;/font&gt;&lt;/span&gt;&lt;/p&gt;&lt;p dir=&quot;ltr&quot; style=&quot;line-height: 1.38 ; margin-left: 108pt ; text-indent: 36pt ; margin-top: 0pt ; margin-bottom: 0pt&quot;&gt;&lt;span style=&quot;font-family: &amp;#34;arial&amp;#34; ; background-color: transparent ; vertical-align: baseline&quot;&gt;&lt;font size=&quot;3&quot;&gt;suma:=suma+arreglo[x];&amp;nbsp;&lt;/font&gt;&lt;/span&gt;&lt;/p&gt;&lt;p dir=&quot;ltr&quot; style=&quot;line-height: 1.38 ; margin-left: 108pt ; text-indent: 36pt ; margin-top: 0pt ; margin-bottom: 0pt&quot;&gt;&lt;span style=&quot;font-family: &amp;#34;arial&amp;#34; ; background-color: transparent ; vertical-align: baseline&quot;&gt;&lt;font size=&quot;3&quot;&gt;valorOld=arreglo[x];&amp;nbsp;&lt;/font&gt;&lt;/span&gt;&lt;/p&gt;&lt;p dir=&quot;ltr&quot; style=&quot;line-height: 1.38 ; margin-left: 108pt ; text-indent: 36pt ; margin-top: 0pt ; margin-bottom: 0pt&quot;&gt;&lt;span style=&quot;font-family: &amp;#34;arial&amp;#34; ; background-color: transparent ; vertical-align: baseline&quot;&gt;&lt;font size=&quot;3&quot;&gt;x:=x+1;&amp;nbsp;&lt;/font&gt;&lt;/span&gt;&lt;/p&gt;&lt;p dir=&quot;ltr&quot; style=&quot;line-height: 1.38 ; margin-left: 108pt ; margin-top: 0pt ; margin-bottom: 0pt&quot;&gt;&lt;span style=&quot;font-family: &amp;#34;arial&amp;#34; ; background-color: transparent ; vertical-align: baseline&quot;&gt;&lt;font size=&quot;3&quot;&gt;endwhile;&lt;/font&gt;&lt;/span&gt;&lt;/p&gt;&lt;p dir=&quot;ltr&quot; style=&quot;line-height: 1.38 ; margin-left: 72pt ; text-indent: 36pt ; margin-top: 0pt ; margin-bottom: 0pt&quot;&gt;&lt;span style=&quot;font-family: &amp;#34;arial&amp;#34; ; background-color: transparent ; vertical-align: baseline&quot;&gt;&lt;font size=&quot;3&quot;&gt;}&lt;/font&gt;&lt;/span&gt;&lt;/p&gt;&lt;p dir=&quot;ltr&quot; style=&quot;line-height: 1.38 ; margin-left: 72pt ; text-indent: 36pt ; margin-top: 0pt ; margin-bottom: 0pt&quot;&gt;&lt;span style=&quot;font-family: &amp;#34;arial&amp;#34; ; background-color: transparent ; vertical-align: baseline&quot;&gt;&lt;font size=&quot;3&quot;&gt;print(arreglo[arreglo.length - 1]);&lt;/font&gt;&lt;/span&gt;&lt;/p&gt;&lt;p dir=&quot;ltr&quot; style=&quot;line-height: 1.38 ; text-indent: 36pt ; margin-top: 0pt ; margin-bottom: 0pt&quot;&gt;&lt;span style=&quot;font-family: &amp;#34;arial&amp;#34; ; background-color: transparent ; vertical-align: baseline&quot;&gt;&lt;font size=&quot;3&quot;&gt;}&lt;/font&gt;&lt;/span&gt;&lt;/p&gt;&lt;div&gt;&lt;span style=&quot;font-size: 14pt ; font-family: &amp;#34;arial&amp;#34; ; background-color: transparent ; vertical-align: baseline&quot;&gt;&lt;br&gt;&lt;/span&gt;&lt;/div&gt;&lt;/span&gt;&lt;/h1&gt;" style="text;html=1;strokeColor=none;fillColor=none;spacing=5;spacingTop=-20;whiteSpace=wrap;overflow=hidden;rounded=0;" vertex="1" parent="1">
          <mxGeometry x="-420" y="1850" width="460" height="860" as="geometry" />
        </mxCell>
        <mxCell id="SPVTOjcvmlSqd_9IR7FR-16" style="edgeStyle=orthogonalEdgeStyle;rounded=0;orthogonalLoop=1;jettySize=auto;html=1;exitX=0.5;exitY=1;exitDx=0;exitDy=0;entryX=0.5;entryY=0;entryDx=0;entryDy=0;" edge="1" parent="1" source="SPVTOjcvmlSqd_9IR7FR-5" target="SPVTOjcvmlSqd_9IR7FR-6">
          <mxGeometry relative="1" as="geometry" />
        </mxCell>
        <mxCell id="SPVTOjcvmlSqd_9IR7FR-5" value="" style="ellipse;whiteSpace=wrap;html=1;aspect=fixed;" vertex="1" parent="1">
          <mxGeometry x="350" y="130" width="60" height="60" as="geometry" />
        </mxCell>
        <mxCell id="SPVTOjcvmlSqd_9IR7FR-18" style="edgeStyle=orthogonalEdgeStyle;rounded=0;orthogonalLoop=1;jettySize=auto;html=1;exitX=0;exitY=1;exitDx=0;exitDy=0;" edge="1" parent="1" source="SPVTOjcvmlSqd_9IR7FR-6" target="SPVTOjcvmlSqd_9IR7FR-7">
          <mxGeometry relative="1" as="geometry" />
        </mxCell>
        <mxCell id="SPVTOjcvmlSqd_9IR7FR-21" style="edgeStyle=orthogonalEdgeStyle;rounded=0;orthogonalLoop=1;jettySize=auto;html=1;exitX=0.5;exitY=1;exitDx=0;exitDy=0;entryX=0.5;entryY=0;entryDx=0;entryDy=0;" edge="1" parent="1" source="SPVTOjcvmlSqd_9IR7FR-6" target="SPVTOjcvmlSqd_9IR7FR-9">
          <mxGeometry relative="1" as="geometry" />
        </mxCell>
        <mxCell id="SPVTOjcvmlSqd_9IR7FR-6" value="" style="ellipse;whiteSpace=wrap;html=1;aspect=fixed;" vertex="1" parent="1">
          <mxGeometry x="350" y="220" width="60" height="60" as="geometry" />
        </mxCell>
        <mxCell id="SPVTOjcvmlSqd_9IR7FR-19" value="" style="edgeStyle=orthogonalEdgeStyle;rounded=0;orthogonalLoop=1;jettySize=auto;html=1;" edge="1" parent="1" source="SPVTOjcvmlSqd_9IR7FR-7" target="SPVTOjcvmlSqd_9IR7FR-8">
          <mxGeometry relative="1" as="geometry" />
        </mxCell>
        <mxCell id="SPVTOjcvmlSqd_9IR7FR-7" value="" style="ellipse;whiteSpace=wrap;html=1;aspect=fixed;" vertex="1" parent="1">
          <mxGeometry x="250" y="310" width="60" height="60" as="geometry" />
        </mxCell>
        <mxCell id="SPVTOjcvmlSqd_9IR7FR-104" style="edgeStyle=orthogonalEdgeStyle;rounded=0;orthogonalLoop=1;jettySize=auto;html=1;exitX=0.5;exitY=1;exitDx=0;exitDy=0;entryX=0;entryY=0.5;entryDx=0;entryDy=0;" edge="1" parent="1" source="SPVTOjcvmlSqd_9IR7FR-8" target="SPVTOjcvmlSqd_9IR7FR-100">
          <mxGeometry relative="1" as="geometry">
            <Array as="points">
              <mxPoint x="40" y="470" />
              <mxPoint x="40" y="3130" />
            </Array>
          </mxGeometry>
        </mxCell>
        <mxCell id="SPVTOjcvmlSqd_9IR7FR-8" value="" style="ellipse;whiteSpace=wrap;html=1;aspect=fixed;" vertex="1" parent="1">
          <mxGeometry x="250" y="410" width="60" height="60" as="geometry" />
        </mxCell>
        <mxCell id="SPVTOjcvmlSqd_9IR7FR-22" style="edgeStyle=orthogonalEdgeStyle;rounded=0;orthogonalLoop=1;jettySize=auto;html=1;exitX=0.5;exitY=1;exitDx=0;exitDy=0;entryX=0.5;entryY=0;entryDx=0;entryDy=0;" edge="1" parent="1" source="SPVTOjcvmlSqd_9IR7FR-9" target="SPVTOjcvmlSqd_9IR7FR-10">
          <mxGeometry relative="1" as="geometry" />
        </mxCell>
        <mxCell id="SPVTOjcvmlSqd_9IR7FR-9" value="" style="ellipse;whiteSpace=wrap;html=1;aspect=fixed;" vertex="1" parent="1">
          <mxGeometry x="350" y="490" width="60" height="60" as="geometry" />
        </mxCell>
        <mxCell id="SPVTOjcvmlSqd_9IR7FR-40" style="edgeStyle=orthogonalEdgeStyle;rounded=0;orthogonalLoop=1;jettySize=auto;html=1;exitX=0;exitY=0.5;exitDx=0;exitDy=0;entryX=0.5;entryY=0;entryDx=0;entryDy=0;" edge="1" parent="1" source="SPVTOjcvmlSqd_9IR7FR-10" target="SPVTOjcvmlSqd_9IR7FR-11">
          <mxGeometry relative="1" as="geometry" />
        </mxCell>
        <mxCell id="SPVTOjcvmlSqd_9IR7FR-44" style="edgeStyle=orthogonalEdgeStyle;rounded=0;orthogonalLoop=1;jettySize=auto;html=1;exitX=0.5;exitY=1;exitDx=0;exitDy=0;" edge="1" parent="1" source="SPVTOjcvmlSqd_9IR7FR-10" target="SPVTOjcvmlSqd_9IR7FR-36">
          <mxGeometry relative="1" as="geometry" />
        </mxCell>
        <mxCell id="SPVTOjcvmlSqd_9IR7FR-10" value="" style="ellipse;whiteSpace=wrap;html=1;aspect=fixed;" vertex="1" parent="1">
          <mxGeometry x="350" y="584.5" width="60" height="60" as="geometry" />
        </mxCell>
        <mxCell id="SPVTOjcvmlSqd_9IR7FR-42" style="edgeStyle=orthogonalEdgeStyle;rounded=0;orthogonalLoop=1;jettySize=auto;html=1;exitX=0.5;exitY=1;exitDx=0;exitDy=0;entryX=0.5;entryY=0;entryDx=0;entryDy=0;" edge="1" parent="1" source="SPVTOjcvmlSqd_9IR7FR-11" target="SPVTOjcvmlSqd_9IR7FR-12">
          <mxGeometry relative="1" as="geometry" />
        </mxCell>
        <mxCell id="SPVTOjcvmlSqd_9IR7FR-11" value="" style="ellipse;whiteSpace=wrap;html=1;aspect=fixed;" vertex="1" parent="1">
          <mxGeometry x="230" y="674.5" width="60" height="60" as="geometry" />
        </mxCell>
        <mxCell id="SPVTOjcvmlSqd_9IR7FR-105" style="edgeStyle=orthogonalEdgeStyle;rounded=0;orthogonalLoop=1;jettySize=auto;html=1;exitX=0;exitY=0.5;exitDx=0;exitDy=0;entryX=0;entryY=0.5;entryDx=0;entryDy=0;" edge="1" parent="1" source="SPVTOjcvmlSqd_9IR7FR-12" target="SPVTOjcvmlSqd_9IR7FR-100">
          <mxGeometry relative="1" as="geometry">
            <Array as="points">
              <mxPoint x="90" y="794" />
              <mxPoint x="90" y="3130" />
            </Array>
          </mxGeometry>
        </mxCell>
        <mxCell id="SPVTOjcvmlSqd_9IR7FR-12" value="" style="ellipse;whiteSpace=wrap;html=1;aspect=fixed;" vertex="1" parent="1">
          <mxGeometry x="230" y="764.5" width="60" height="60" as="geometry" />
        </mxCell>
        <mxCell id="SPVTOjcvmlSqd_9IR7FR-17" value="if(arreglo.length == 0)" style="text;html=1;align=center;verticalAlign=middle;resizable=0;points=[];autosize=1;strokeColor=none;" vertex="1" parent="1">
          <mxGeometry x="400" y="100" width="130" height="20" as="geometry" />
        </mxCell>
        <mxCell id="SPVTOjcvmlSqd_9IR7FR-20" value="print(&quot; &quot;)" style="text;html=1;align=center;verticalAlign=middle;resizable=0;points=[];autosize=1;strokeColor=none;" vertex="1" parent="1">
          <mxGeometry x="190" y="380" width="60" height="20" as="geometry" />
        </mxCell>
        <mxCell id="SPVTOjcvmlSqd_9IR7FR-23" value="if(arreglo.length == 1)" style="text;html=1;align=center;verticalAlign=middle;resizable=0;points=[];autosize=1;strokeColor=none;" vertex="1" parent="1">
          <mxGeometry x="390" y="560" width="130" height="20" as="geometry" />
        </mxCell>
        <mxCell id="SPVTOjcvmlSqd_9IR7FR-51" style="edgeStyle=orthogonalEdgeStyle;rounded=0;orthogonalLoop=1;jettySize=auto;html=1;exitX=0.5;exitY=1;exitDx=0;exitDy=0;" edge="1" parent="1" source="SPVTOjcvmlSqd_9IR7FR-32" target="SPVTOjcvmlSqd_9IR7FR-33">
          <mxGeometry relative="1" as="geometry" />
        </mxCell>
        <mxCell id="SPVTOjcvmlSqd_9IR7FR-32" value="" style="ellipse;whiteSpace=wrap;html=1;aspect=fixed;" vertex="1" parent="1">
          <mxGeometry x="350" y="1220" width="60" height="60" as="geometry" />
        </mxCell>
        <mxCell id="SPVTOjcvmlSqd_9IR7FR-58" style="edgeStyle=orthogonalEdgeStyle;rounded=0;orthogonalLoop=1;jettySize=auto;html=1;exitX=0.5;exitY=1;exitDx=0;exitDy=0;entryX=0.5;entryY=0;entryDx=0;entryDy=0;" edge="1" parent="1" source="SPVTOjcvmlSqd_9IR7FR-33" target="SPVTOjcvmlSqd_9IR7FR-34">
          <mxGeometry relative="1" as="geometry" />
        </mxCell>
        <mxCell id="SPVTOjcvmlSqd_9IR7FR-33" value="" style="ellipse;whiteSpace=wrap;html=1;aspect=fixed;" vertex="1" parent="1">
          <mxGeometry x="350" y="1310" width="60" height="60" as="geometry" />
        </mxCell>
        <mxCell id="SPVTOjcvmlSqd_9IR7FR-59" style="edgeStyle=orthogonalEdgeStyle;rounded=0;orthogonalLoop=1;jettySize=auto;html=1;exitX=0.5;exitY=1;exitDx=0;exitDy=0;entryX=0.5;entryY=0;entryDx=0;entryDy=0;" edge="1" parent="1" source="SPVTOjcvmlSqd_9IR7FR-34" target="SPVTOjcvmlSqd_9IR7FR-35">
          <mxGeometry relative="1" as="geometry" />
        </mxCell>
        <mxCell id="SPVTOjcvmlSqd_9IR7FR-34" value="" style="ellipse;whiteSpace=wrap;html=1;aspect=fixed;" vertex="1" parent="1">
          <mxGeometry x="350" y="1400" width="60" height="60" as="geometry" />
        </mxCell>
        <mxCell id="SPVTOjcvmlSqd_9IR7FR-61" style="edgeStyle=orthogonalEdgeStyle;rounded=0;orthogonalLoop=1;jettySize=auto;html=1;exitX=0.5;exitY=1;exitDx=0;exitDy=0;entryX=0.5;entryY=0;entryDx=0;entryDy=0;" edge="1" parent="1" source="SPVTOjcvmlSqd_9IR7FR-35" target="SPVTOjcvmlSqd_9IR7FR-54">
          <mxGeometry relative="1" as="geometry" />
        </mxCell>
        <mxCell id="SPVTOjcvmlSqd_9IR7FR-35" value="" style="ellipse;whiteSpace=wrap;html=1;aspect=fixed;" vertex="1" parent="1">
          <mxGeometry x="350" y="1490" width="60" height="60" as="geometry" />
        </mxCell>
        <mxCell id="SPVTOjcvmlSqd_9IR7FR-45" style="edgeStyle=orthogonalEdgeStyle;rounded=0;orthogonalLoop=1;jettySize=auto;html=1;exitX=0.5;exitY=1;exitDx=0;exitDy=0;entryX=0.5;entryY=0;entryDx=0;entryDy=0;" edge="1" parent="1" source="SPVTOjcvmlSqd_9IR7FR-36" target="SPVTOjcvmlSqd_9IR7FR-37">
          <mxGeometry relative="1" as="geometry" />
        </mxCell>
        <mxCell id="SPVTOjcvmlSqd_9IR7FR-36" value="" style="ellipse;whiteSpace=wrap;html=1;aspect=fixed;" vertex="1" parent="1">
          <mxGeometry x="350" y="860" width="60" height="60" as="geometry" />
        </mxCell>
        <mxCell id="SPVTOjcvmlSqd_9IR7FR-47" style="edgeStyle=orthogonalEdgeStyle;rounded=0;orthogonalLoop=1;jettySize=auto;html=1;exitX=0.5;exitY=1;exitDx=0;exitDy=0;entryX=0.5;entryY=0;entryDx=0;entryDy=0;" edge="1" parent="1" source="SPVTOjcvmlSqd_9IR7FR-37" target="SPVTOjcvmlSqd_9IR7FR-38">
          <mxGeometry relative="1" as="geometry" />
        </mxCell>
        <mxCell id="SPVTOjcvmlSqd_9IR7FR-37" value="" style="ellipse;whiteSpace=wrap;html=1;aspect=fixed;" vertex="1" parent="1">
          <mxGeometry x="350" y="950" width="60" height="60" as="geometry" />
        </mxCell>
        <mxCell id="SPVTOjcvmlSqd_9IR7FR-48" style="edgeStyle=orthogonalEdgeStyle;rounded=0;orthogonalLoop=1;jettySize=auto;html=1;exitX=0.5;exitY=1;exitDx=0;exitDy=0;entryX=0.5;entryY=0;entryDx=0;entryDy=0;" edge="1" parent="1" source="SPVTOjcvmlSqd_9IR7FR-38" target="SPVTOjcvmlSqd_9IR7FR-39">
          <mxGeometry relative="1" as="geometry" />
        </mxCell>
        <mxCell id="SPVTOjcvmlSqd_9IR7FR-38" value="" style="ellipse;whiteSpace=wrap;html=1;aspect=fixed;" vertex="1" parent="1">
          <mxGeometry x="350" y="1040" width="60" height="60" as="geometry" />
        </mxCell>
        <mxCell id="SPVTOjcvmlSqd_9IR7FR-50" style="edgeStyle=orthogonalEdgeStyle;rounded=0;orthogonalLoop=1;jettySize=auto;html=1;exitX=0.5;exitY=1;exitDx=0;exitDy=0;entryX=0.5;entryY=0;entryDx=0;entryDy=0;" edge="1" parent="1" source="SPVTOjcvmlSqd_9IR7FR-39" target="SPVTOjcvmlSqd_9IR7FR-32">
          <mxGeometry relative="1" as="geometry" />
        </mxCell>
        <mxCell id="SPVTOjcvmlSqd_9IR7FR-39" value="" style="ellipse;whiteSpace=wrap;html=1;aspect=fixed;" vertex="1" parent="1">
          <mxGeometry x="350" y="1130" width="60" height="60" as="geometry" />
        </mxCell>
        <mxCell id="SPVTOjcvmlSqd_9IR7FR-43" value="print(arreglo[0])" style="text;html=1;align=center;verticalAlign=middle;resizable=0;points=[];autosize=1;strokeColor=none;" vertex="1" parent="1">
          <mxGeometry x="140" y="734.5" width="100" height="20" as="geometry" />
        </mxCell>
        <mxCell id="SPVTOjcvmlSqd_9IR7FR-46" value="suma = arreglo[0];" style="text;html=1;align=center;verticalAlign=middle;resizable=0;points=[];autosize=1;strokeColor=none;" vertex="1" parent="1">
          <mxGeometry x="420" y="930" width="110" height="20" as="geometry" />
        </mxCell>
        <mxCell id="SPVTOjcvmlSqd_9IR7FR-49" value="valorOld = arreglo[0]" style="text;html=1;align=center;verticalAlign=middle;resizable=0;points=[];autosize=1;strokeColor=none;" vertex="1" parent="1">
          <mxGeometry x="405" y="1100" width="120" height="20" as="geometry" />
        </mxCell>
        <mxCell id="SPVTOjcvmlSqd_9IR7FR-52" value="x = 1;" style="text;html=1;align=center;verticalAlign=middle;resizable=0;points=[];autosize=1;strokeColor=none;" vertex="1" parent="1">
          <mxGeometry x="405" y="1290" width="50" height="20" as="geometry" />
        </mxCell>
        <mxCell id="SPVTOjcvmlSqd_9IR7FR-67" style="edgeStyle=orthogonalEdgeStyle;rounded=0;orthogonalLoop=1;jettySize=auto;html=1;exitX=0;exitY=0.5;exitDx=0;exitDy=0;entryX=0.5;entryY=0;entryDx=0;entryDy=0;" edge="1" parent="1" source="SPVTOjcvmlSqd_9IR7FR-54" target="SPVTOjcvmlSqd_9IR7FR-55">
          <mxGeometry relative="1" as="geometry" />
        </mxCell>
        <mxCell id="SPVTOjcvmlSqd_9IR7FR-96" style="edgeStyle=orthogonalEdgeStyle;rounded=0;orthogonalLoop=1;jettySize=auto;html=1;exitX=1;exitY=0.5;exitDx=0;exitDy=0;" edge="1" parent="1" source="SPVTOjcvmlSqd_9IR7FR-54">
          <mxGeometry relative="1" as="geometry">
            <mxPoint x="540" y="2900" as="targetPoint" />
          </mxGeometry>
        </mxCell>
        <mxCell id="SPVTOjcvmlSqd_9IR7FR-54" value="" style="ellipse;whiteSpace=wrap;html=1;aspect=fixed;" vertex="1" parent="1">
          <mxGeometry x="354" y="1580" width="60" height="60" as="geometry" />
        </mxCell>
        <mxCell id="SPVTOjcvmlSqd_9IR7FR-68" style="edgeStyle=orthogonalEdgeStyle;rounded=0;orthogonalLoop=1;jettySize=auto;html=1;exitX=0.5;exitY=1;exitDx=0;exitDy=0;entryX=0.5;entryY=0;entryDx=0;entryDy=0;" edge="1" parent="1" source="SPVTOjcvmlSqd_9IR7FR-55" target="SPVTOjcvmlSqd_9IR7FR-56">
          <mxGeometry relative="1" as="geometry" />
        </mxCell>
        <mxCell id="SPVTOjcvmlSqd_9IR7FR-55" value="" style="ellipse;whiteSpace=wrap;html=1;aspect=fixed;" vertex="1" parent="1">
          <mxGeometry x="260" y="1680" width="60" height="60" as="geometry" />
        </mxCell>
        <mxCell id="SPVTOjcvmlSqd_9IR7FR-70" style="edgeStyle=orthogonalEdgeStyle;rounded=0;orthogonalLoop=1;jettySize=auto;html=1;exitX=0.5;exitY=1;exitDx=0;exitDy=0;entryX=0.5;entryY=0;entryDx=0;entryDy=0;" edge="1" parent="1" source="SPVTOjcvmlSqd_9IR7FR-56" target="SPVTOjcvmlSqd_9IR7FR-57">
          <mxGeometry relative="1" as="geometry" />
        </mxCell>
        <mxCell id="SPVTOjcvmlSqd_9IR7FR-56" value="" style="ellipse;whiteSpace=wrap;html=1;aspect=fixed;" vertex="1" parent="1">
          <mxGeometry x="260" y="1770" width="60" height="60" as="geometry" />
        </mxCell>
        <mxCell id="SPVTOjcvmlSqd_9IR7FR-71" style="edgeStyle=orthogonalEdgeStyle;rounded=0;orthogonalLoop=1;jettySize=auto;html=1;exitX=0;exitY=0.5;exitDx=0;exitDy=0;entryX=0.5;entryY=0;entryDx=0;entryDy=0;" edge="1" parent="1" source="SPVTOjcvmlSqd_9IR7FR-57" target="SPVTOjcvmlSqd_9IR7FR-63">
          <mxGeometry relative="1" as="geometry" />
        </mxCell>
        <mxCell id="SPVTOjcvmlSqd_9IR7FR-84" style="edgeStyle=orthogonalEdgeStyle;rounded=0;orthogonalLoop=1;jettySize=auto;html=1;exitX=0.5;exitY=1;exitDx=0;exitDy=0;entryX=0.5;entryY=0;entryDx=0;entryDy=0;" edge="1" parent="1" source="SPVTOjcvmlSqd_9IR7FR-57" target="SPVTOjcvmlSqd_9IR7FR-76">
          <mxGeometry relative="1" as="geometry" />
        </mxCell>
        <mxCell id="SPVTOjcvmlSqd_9IR7FR-57" value="" style="ellipse;whiteSpace=wrap;html=1;aspect=fixed;" vertex="1" parent="1">
          <mxGeometry x="260" y="1860" width="60" height="60" as="geometry" />
        </mxCell>
        <mxCell id="SPVTOjcvmlSqd_9IR7FR-60" value="while(x &amp;lt; arreglo.length(arreglo))" style="text;html=1;align=center;verticalAlign=middle;resizable=0;points=[];autosize=1;strokeColor=none;" vertex="1" parent="1">
          <mxGeometry x="400" y="1460" width="190" height="20" as="geometry" />
        </mxCell>
        <mxCell id="SPVTOjcvmlSqd_9IR7FR-72" style="edgeStyle=orthogonalEdgeStyle;rounded=0;orthogonalLoop=1;jettySize=auto;html=1;exitX=0.5;exitY=1;exitDx=0;exitDy=0;entryX=0.5;entryY=0;entryDx=0;entryDy=0;" edge="1" parent="1" source="SPVTOjcvmlSqd_9IR7FR-63" target="SPVTOjcvmlSqd_9IR7FR-64">
          <mxGeometry relative="1" as="geometry" />
        </mxCell>
        <mxCell id="SPVTOjcvmlSqd_9IR7FR-63" value="" style="ellipse;whiteSpace=wrap;html=1;aspect=fixed;" vertex="1" parent="1">
          <mxGeometry x="170" y="1960" width="60" height="60" as="geometry" />
        </mxCell>
        <mxCell id="SPVTOjcvmlSqd_9IR7FR-74" style="edgeStyle=orthogonalEdgeStyle;rounded=0;orthogonalLoop=1;jettySize=auto;html=1;exitX=0.5;exitY=1;exitDx=0;exitDy=0;entryX=0.5;entryY=0;entryDx=0;entryDy=0;" edge="1" parent="1" source="SPVTOjcvmlSqd_9IR7FR-64" target="SPVTOjcvmlSqd_9IR7FR-65">
          <mxGeometry relative="1" as="geometry" />
        </mxCell>
        <mxCell id="SPVTOjcvmlSqd_9IR7FR-64" value="" style="ellipse;whiteSpace=wrap;html=1;aspect=fixed;" vertex="1" parent="1">
          <mxGeometry x="170" y="2050" width="60" height="60" as="geometry" />
        </mxCell>
        <mxCell id="SPVTOjcvmlSqd_9IR7FR-81" style="edgeStyle=orthogonalEdgeStyle;rounded=0;orthogonalLoop=1;jettySize=auto;html=1;exitX=0.5;exitY=1;exitDx=0;exitDy=0;entryX=0.5;entryY=0;entryDx=0;entryDy=0;" edge="1" parent="1" source="SPVTOjcvmlSqd_9IR7FR-65" target="SPVTOjcvmlSqd_9IR7FR-66">
          <mxGeometry relative="1" as="geometry" />
        </mxCell>
        <mxCell id="SPVTOjcvmlSqd_9IR7FR-65" value="" style="ellipse;whiteSpace=wrap;html=1;aspect=fixed;" vertex="1" parent="1">
          <mxGeometry x="170" y="2140" width="60" height="60" as="geometry" />
        </mxCell>
        <mxCell id="SPVTOjcvmlSqd_9IR7FR-83" style="edgeStyle=orthogonalEdgeStyle;rounded=0;orthogonalLoop=1;jettySize=auto;html=1;exitX=0.5;exitY=1;exitDx=0;exitDy=0;entryX=0;entryY=0.5;entryDx=0;entryDy=0;" edge="1" parent="1" source="SPVTOjcvmlSqd_9IR7FR-66" target="SPVTOjcvmlSqd_9IR7FR-76">
          <mxGeometry relative="1" as="geometry" />
        </mxCell>
        <mxCell id="SPVTOjcvmlSqd_9IR7FR-66" value="" style="ellipse;whiteSpace=wrap;html=1;aspect=fixed;" vertex="1" parent="1">
          <mxGeometry x="170" y="2230" width="60" height="60" as="geometry" />
        </mxCell>
        <mxCell id="SPVTOjcvmlSqd_9IR7FR-69" value="if(arreglo[x] != valorOld)" style="text;html=1;align=center;verticalAlign=middle;resizable=0;points=[];autosize=1;strokeColor=none;" vertex="1" parent="1">
          <mxGeometry x="140" y="1740" width="140" height="20" as="geometry" />
        </mxCell>
        <mxCell id="SPVTOjcvmlSqd_9IR7FR-73" value="print(suma);" style="text;html=1;align=center;verticalAlign=middle;resizable=0;points=[];autosize=1;strokeColor=none;" vertex="1" parent="1">
          <mxGeometry x="110" y="2020" width="80" height="20" as="geometry" />
        </mxCell>
        <mxCell id="SPVTOjcvmlSqd_9IR7FR-75" style="edgeStyle=orthogonalEdgeStyle;rounded=0;orthogonalLoop=1;jettySize=auto;html=1;exitX=0.5;exitY=1;exitDx=0;exitDy=0;entryX=0.5;entryY=0;entryDx=0;entryDy=0;" edge="1" parent="1" source="SPVTOjcvmlSqd_9IR7FR-76" target="SPVTOjcvmlSqd_9IR7FR-78">
          <mxGeometry relative="1" as="geometry" />
        </mxCell>
        <mxCell id="SPVTOjcvmlSqd_9IR7FR-76" value="" style="ellipse;whiteSpace=wrap;html=1;aspect=fixed;" vertex="1" parent="1">
          <mxGeometry x="260" y="2338" width="60" height="60" as="geometry" />
        </mxCell>
        <mxCell id="SPVTOjcvmlSqd_9IR7FR-77" style="edgeStyle=orthogonalEdgeStyle;rounded=0;orthogonalLoop=1;jettySize=auto;html=1;exitX=0.5;exitY=1;exitDx=0;exitDy=0;entryX=0.5;entryY=0;entryDx=0;entryDy=0;" edge="1" parent="1" source="SPVTOjcvmlSqd_9IR7FR-78" target="SPVTOjcvmlSqd_9IR7FR-79">
          <mxGeometry relative="1" as="geometry" />
        </mxCell>
        <mxCell id="SPVTOjcvmlSqd_9IR7FR-78" value="" style="ellipse;whiteSpace=wrap;html=1;aspect=fixed;" vertex="1" parent="1">
          <mxGeometry x="260" y="2428" width="60" height="60" as="geometry" />
        </mxCell>
        <mxCell id="SPVTOjcvmlSqd_9IR7FR-90" style="edgeStyle=orthogonalEdgeStyle;rounded=0;orthogonalLoop=1;jettySize=auto;html=1;exitX=0.5;exitY=1;exitDx=0;exitDy=0;entryX=0.5;entryY=0;entryDx=0;entryDy=0;" edge="1" parent="1" source="SPVTOjcvmlSqd_9IR7FR-79" target="SPVTOjcvmlSqd_9IR7FR-80">
          <mxGeometry relative="1" as="geometry" />
        </mxCell>
        <mxCell id="SPVTOjcvmlSqd_9IR7FR-79" value="" style="ellipse;whiteSpace=wrap;html=1;aspect=fixed;" vertex="1" parent="1">
          <mxGeometry x="260" y="2518" width="60" height="60" as="geometry" />
        </mxCell>
        <mxCell id="SPVTOjcvmlSqd_9IR7FR-92" style="edgeStyle=orthogonalEdgeStyle;rounded=0;orthogonalLoop=1;jettySize=auto;html=1;exitX=0.5;exitY=1;exitDx=0;exitDy=0;entryX=0.5;entryY=0;entryDx=0;entryDy=0;" edge="1" parent="1" source="SPVTOjcvmlSqd_9IR7FR-80" target="SPVTOjcvmlSqd_9IR7FR-87">
          <mxGeometry relative="1" as="geometry" />
        </mxCell>
        <mxCell id="SPVTOjcvmlSqd_9IR7FR-80" value="" style="ellipse;whiteSpace=wrap;html=1;aspect=fixed;" vertex="1" parent="1">
          <mxGeometry x="260" y="2608" width="60" height="60" as="geometry" />
        </mxCell>
        <mxCell id="SPVTOjcvmlSqd_9IR7FR-82" value="suma = 0;" style="text;html=1;align=center;verticalAlign=middle;resizable=0;points=[];autosize=1;strokeColor=none;" vertex="1" parent="1">
          <mxGeometry x="110" y="2200" width="70" height="20" as="geometry" />
        </mxCell>
        <mxCell id="SPVTOjcvmlSqd_9IR7FR-85" value="suma = suma + arreglo[x];" style="text;html=1;align=center;verticalAlign=middle;resizable=0;points=[];autosize=1;strokeColor=none;" vertex="1" parent="1">
          <mxGeometry x="305" y="2398" width="150" height="20" as="geometry" />
        </mxCell>
        <mxCell id="SPVTOjcvmlSqd_9IR7FR-86" style="edgeStyle=orthogonalEdgeStyle;rounded=0;orthogonalLoop=1;jettySize=auto;html=1;exitX=0.5;exitY=1;exitDx=0;exitDy=0;entryX=0.5;entryY=0;entryDx=0;entryDy=0;" edge="1" parent="1" source="SPVTOjcvmlSqd_9IR7FR-87" target="SPVTOjcvmlSqd_9IR7FR-88">
          <mxGeometry relative="1" as="geometry" />
        </mxCell>
        <mxCell id="SPVTOjcvmlSqd_9IR7FR-87" value="" style="ellipse;whiteSpace=wrap;html=1;aspect=fixed;" vertex="1" parent="1">
          <mxGeometry x="260" y="2700" width="60" height="60" as="geometry" />
        </mxCell>
        <mxCell id="SPVTOjcvmlSqd_9IR7FR-95" style="edgeStyle=orthogonalEdgeStyle;rounded=0;orthogonalLoop=1;jettySize=auto;html=1;exitX=1;exitY=0.5;exitDx=0;exitDy=0;entryX=0.5;entryY=1;entryDx=0;entryDy=0;" edge="1" parent="1" source="SPVTOjcvmlSqd_9IR7FR-88" target="SPVTOjcvmlSqd_9IR7FR-54">
          <mxGeometry relative="1" as="geometry">
            <Array as="points">
              <mxPoint x="460" y="2820" />
              <mxPoint x="460" y="1640" />
            </Array>
          </mxGeometry>
        </mxCell>
        <mxCell id="SPVTOjcvmlSqd_9IR7FR-88" value="" style="ellipse;whiteSpace=wrap;html=1;aspect=fixed;" vertex="1" parent="1">
          <mxGeometry x="260" y="2790" width="60" height="60" as="geometry" />
        </mxCell>
        <mxCell id="SPVTOjcvmlSqd_9IR7FR-91" value="valorOld = arreglo[x]" style="text;html=1;align=center;verticalAlign=middle;resizable=0;points=[];autosize=1;strokeColor=none;" vertex="1" parent="1">
          <mxGeometry x="310" y="2588" width="120" height="20" as="geometry" />
        </mxCell>
        <mxCell id="SPVTOjcvmlSqd_9IR7FR-93" value="x = x + 1;" style="text;html=1;align=center;verticalAlign=middle;resizable=0;points=[];autosize=1;strokeColor=none;" vertex="1" parent="1">
          <mxGeometry x="300" y="2760" width="60" height="20" as="geometry" />
        </mxCell>
        <mxCell id="SPVTOjcvmlSqd_9IR7FR-101" style="edgeStyle=orthogonalEdgeStyle;rounded=0;orthogonalLoop=1;jettySize=auto;html=1;exitX=0.5;exitY=1;exitDx=0;exitDy=0;entryX=0.5;entryY=0;entryDx=0;entryDy=0;" edge="1" parent="1" source="SPVTOjcvmlSqd_9IR7FR-97" target="SPVTOjcvmlSqd_9IR7FR-99">
          <mxGeometry relative="1" as="geometry" />
        </mxCell>
        <mxCell id="SPVTOjcvmlSqd_9IR7FR-97" value="" style="ellipse;whiteSpace=wrap;html=1;aspect=fixed;" vertex="1" parent="1">
          <mxGeometry x="510" y="2900" width="60" height="60" as="geometry" />
        </mxCell>
        <mxCell id="SPVTOjcvmlSqd_9IR7FR-102" style="edgeStyle=orthogonalEdgeStyle;rounded=0;orthogonalLoop=1;jettySize=auto;html=1;exitX=0.5;exitY=1;exitDx=0;exitDy=0;entryX=0.5;entryY=0;entryDx=0;entryDy=0;" edge="1" parent="1" source="SPVTOjcvmlSqd_9IR7FR-99" target="SPVTOjcvmlSqd_9IR7FR-100">
          <mxGeometry relative="1" as="geometry" />
        </mxCell>
        <mxCell id="SPVTOjcvmlSqd_9IR7FR-99" value="" style="ellipse;whiteSpace=wrap;html=1;aspect=fixed;" vertex="1" parent="1">
          <mxGeometry x="510" y="3000" width="60" height="60" as="geometry" />
        </mxCell>
        <mxCell id="SPVTOjcvmlSqd_9IR7FR-100" value="" style="ellipse;whiteSpace=wrap;html=1;aspect=fixed;" vertex="1" parent="1">
          <mxGeometry x="510" y="3100" width="60" height="60" as="geometry" />
        </mxCell>
        <mxCell id="SPVTOjcvmlSqd_9IR7FR-103" value="print(arreglo[arreglo.length - 1])" style="text;html=1;align=center;verticalAlign=middle;resizable=0;points=[];autosize=1;strokeColor=none;" vertex="1" parent="1">
          <mxGeometry x="560" y="2970" width="180" height="20" as="geometry" />
        </mxCell>
      </root>
    </mxGraphModel>
  </diagram>
</mxfile>
